<?xml version="1.0" encoding="UTF-8" standalone="no"?>
<!-- Creator: CorelDRAW -->

<svg
   xml:space="preserve"
   width="25mm"
   height="25mm"
   style="shape-rendering:geometricPrecision; text-rendering:geometricPrecision; image-rendering:optimizeQuality; fill-rule:evenodd; clip-rule:evenodd"
   viewBox="0 0 0.852555 0.852555"
   version="1.1"
   id="svg2"
   sodipodi:docname="type2.svg"
   inkscape:version="1.4 (e7c3feb1, 2024-10-09)"
   xmlns:inkscape="http://www.inkscape.org/namespaces/inkscape"
   xmlns:sodipodi="http://sodipodi.sourceforge.net/DTD/sodipodi-0.dtd"
   xmlns="http://www.w3.org/2000/svg"
   xmlns:svg="http://www.w3.org/2000/svg"><sodipodi:namedview
   id="namedview2"
   pagecolor="#ffffff"
   bordercolor="#000000"
   borderopacity="0.25"
   inkscape:showpageshadow="2"
   inkscape:pageopacity="0.0"
   inkscape:pagecheckerboard="0"
   inkscape:deskcolor="#d1d1d1"
   inkscape:document-units="mm"
   inkscape:zoom="1.7287385"
   inkscape:cx="54.664137"
   inkscape:cy="71.728603"
   inkscape:window-width="1120"
   inkscape:window-height="733"
   inkscape:window-x="0"
   inkscape:window-y="38"
   inkscape:window-maximized="0"
   inkscape:current-layer="Layer_x0020_1" />
 <defs
   id="defs1">
  <style
   type="text/css"
   id="style1">
   <![CDATA[
    .fil2 {fill:#66c266}
    .fil0 {fill:#1E262E}
    .fil1 {fill:#384048}
   ]]>
  </style>
 </defs>
 <g
   id="Layer_x0020_1"
   inkscape:label="Layer 1">
  <metadata
   id="CorelCorpID_0Corel-Layer" />
  
  
  <path
   class="fil2"
   d="m 0.15778096,0.3137423 h 0.154994 V 0.2622071 c 0.0647567,2.8646e-4 0.119989,-7.025e-4 0.184749,-4.1946e-4 0.0115197,6.002e-4 0.0518217,-0.006657 0.0502769,0.0346819 l 1.8415e-4,0.020301 c -0.001385,0.0329973 -0.0416661,0.0345899 -0.0704006,0.047576 -0.212464,0.0651898 -0.317914,0.0976551 -0.318095,0.139874 -0.001217,0.0214059 -7.6048e-4,0.0501268 -0.001163,0.072341 l 1.0572e-4,0.106515 0.526739,0.003438 -0.001715,-0.104789 -0.369623,-7.1614e-4 -1.8415e-4,-0.0154824 c 0.001057,-0.0112264 -0.002923,-0.025164 0.0117755,-0.0317355 0.062598,-0.0231861 0.194229,-0.0667551 0.315739,-0.107309 0.0398655,-0.0174228 0.0466143,-0.0633858 0.0463688,-0.109465 L 0.68805382,0.2233178 C 0.68783557,0.1797079 0.66423002,0.1512905 0.62234232,0.1530707 l -0.40509,6.5476e-4 c -0.0537519,0.001927 -0.0594231,0.051849 -0.0594879,0.0797378 l 1.705e-5,0.08028 z"
   id="path2" />
 </g>
</svg>
