<?xml version="1.0" encoding="UTF-8" standalone="no"?>
<!-- Creator: CorelDRAW -->

<svg
   xml:space="preserve"
   width="25mm"
   height="25mm"
   style="shape-rendering:geometricPrecision; text-rendering:geometricPrecision; image-rendering:optimizeQuality; fill-rule:evenodd; clip-rule:evenodd"
   viewBox="0 0 0.928205 0.928205"
   version="1.1"
   id="svg2"
   sodipodi:docname="type3.svg"
   inkscape:version="1.4 (e7c3feb1, 2024-10-09)"
   xmlns:inkscape="http://www.inkscape.org/namespaces/inkscape"
   xmlns:sodipodi="http://sodipodi.sourceforge.net/DTD/sodipodi-0.dtd"
   xmlns="http://www.w3.org/2000/svg"
   xmlns:svg="http://www.w3.org/2000/svg"><sodipodi:namedview
   id="namedview2"
   pagecolor="#ffffff"
   bordercolor="#000000"
   borderopacity="0.25"
   inkscape:showpageshadow="2"
   inkscape:pageopacity="0.0"
   inkscape:pagecheckerboard="0"
   inkscape:deskcolor="#d1d1d1"
   inkscape:document-units="mm"
   inkscape:zoom="3.1645014"
   inkscape:cx="60.199057"
   inkscape:cy="54.352955"
   inkscape:window-width="1728"
   inkscape:window-height="1051"
   inkscape:window-x="0"
   inkscape:window-y="38"
   inkscape:window-maximized="1"
   inkscape:current-layer="svg2" />
 <defs
   id="defs1">
  <style
   type="text/css"
   id="style1">
   <![CDATA[
    .fil0 {fill:#1E262E}
    .fil1 {fill:#384048}
    .fil2 {fill:#f78}
   ]]>
  </style>
 </defs>
 <g
   id="Layer_x0020_1"
   inkscape:label="Layer 1">
  <metadata
   id="CorelCorpID_0Corel-Layer" />
  
  
  <path
   class="fil2"
   d="m 0.75717475,0.58089916 v 0.116709 c 0,0.0366307 -0.0501565,0.0665597 -0.111333,0.0665597 h -0.416682 c -0.0611761,0 -0.0524473,-0.0299253 -0.0524473,-0.0665597 v -0.0473422 h 0.373532 c 0.0210331,0 0.0382495,-0.0102919 0.0382495,-0.0228635 v -0.0734916 c 0,-0.0125716 -0.0172126,-0.0228635 -0.0382495,-0.0228635 h -0.199891 v -0.113902 -0.001281 h 0.199891 c 0.0210368,0 0.0382495,-0.0102919 0.0382495,-0.0228635 v -0.0734916 c 0,-0.0125716 -0.0172163,-0.0228635 -0.0382495,-0.0228635 h -0.373532 v -0.0473422 c 0,-0.0366344 -0.0132622,-0.0665597 0.0479177,-0.0665597 h 0.421212 c 0.0611799,0 0.111333,0.029929 0.111333,0.0665597 v 0.114537 c 0.001515,0.0304711 -0.005651,0.0450922 -0.0241779,0.0528706 -0.0251135,0.0105444 -0.0333077,0.0277088 -0.0333077,0.0403212 v 0.0340206 c 0,0.0237323 0.0111867,0.0330181 0.0326543,0.0431355 0.0210108,0.009902 0.0248313,0.0251395 0.0248309,0.0467106 z"
   id="path2" />
 </g>
</svg>
